<?xml version="1.0" encoding="UTF-8" standalone="no"?>
<!-- Created with Inkscape (http://www.inkscape.org/) -->

<svg
   xmlns:dc="http://purl.org/dc/elements/1.1/"
   xmlns:cc="http://creativecommons.org/ns#"
   xmlns:rdf="http://www.w3.org/1999/02/22-rdf-syntax-ns#"
   xmlns:svg="http://www.w3.org/2000/svg"
   xmlns="http://www.w3.org/2000/svg"
   xmlns:sodipodi="http://sodipodi.sourceforge.net/DTD/sodipodi-0.dtd"
   xmlns:inkscape="http://www.inkscape.org/namespaces/inkscape"
   width="193"
   height="358"
   id="svg2"
   version="1.1"
   inkscape:version="0.48.4 r9939"
   sodipodi:docname="loading.svg"
   inkscape:export-filename="C:\Users\jona\workspace\autologinDuoc_Academi\loading39.png"
   inkscape:export-xdpi="90"
   inkscape:export-ydpi="90">
  <defs
     id="defs4" />
  <sodipodi:namedview
     id="base"
     pagecolor="#ffffff"
     bordercolor="#666666"
     borderopacity="1.0"
     inkscape:pageopacity="0.0"
     inkscape:pageshadow="2"
     inkscape:zoom="1.5251397"
     inkscape:cx="96.5"
     inkscape:cy="179"
     inkscape:document-units="px"
     inkscape:current-layer="layer1"
     showgrid="false"
     inkscape:window-width="1366"
     inkscape:window-height="715"
     inkscape:window-x="-8"
     inkscape:window-y="22"
     inkscape:window-maximized="1" />
  <metadata
     id="metadata7">
    <rdf:RDF>
      <cc:Work
         rdf:about="">
        <dc:format>image/svg+xml</dc:format>
        <dc:type
           rdf:resource="http://purl.org/dc/dcmitype/StillImage" />
        <dc:title></dc:title>
      </cc:Work>
    </rdf:RDF>
  </metadata>
  <g
     inkscape:label="Capa 1"
     inkscape:groupmode="layer"
     id="layer1"
     transform="translate(0,-694.36218)">
    <g
       id="g4873"
       transform="translate(-275.54724,347.18109)">
      <path
         sodipodi:nodetypes="ssccssccssss"
         inkscape:connector-curvature="0"
         id="path3859"
         d="m 372.04337,347.32119 c -43.0296,0 -78.17188,35.15001 -78.17188,78.1796 l 0,84.21451 24.65014,-20.36388 0,-63.85063 c 0,-29.70764 23.81409,-53.52942 53.52174,-53.52942 29.70763,0 53.52942,23.82178 53.52942,53.52942 l 0.008,0 c 0,6.80591 5.51148,12.31739 12.3174,12.31739 6.80583,0 12.32504,-5.51148 12.32504,-12.31739 0,-43.02959 -35.15002,-78.1796 -78.17959,-78.1796 z"
         style="font-size:medium;font-style:normal;font-variant:normal;font-weight:normal;font-stretch:normal;text-indent:0;text-align:start;text-decoration:none;line-height:normal;letter-spacing:normal;word-spacing:normal;text-transform:none;direction:ltr;block-progression:tb;writing-mode:lr-tb;text-anchor:start;baseline-shift:baseline;color:#000000;fill:#666666;fill-opacity:1;fill-rule:evenodd;stroke:none;stroke-width:100;marker:none;visibility:visible;display:inline;overflow:visible;enable-background:accumulate;font-family:Sans;-inkscape-font-specification:Sans" />
      <path
         sodipodi:nodetypes="sccsccssccsccs"
         inkscape:connector-curvature="0"
         id="path3866"
         d="m 372.04249,449.52487 c -52.91784,0 -96.1359,43.22755 -96.1359,96.14539 l 0,63.22534 c 0,52.91794 43.21806,96.1454 96.1359,96.1454 52.91785,0 96.1454,-43.22749 96.1454,-96.1454 l 0,-63.22534 c 0,-52.91784 -43.22755,-96.14539 -96.1454,-96.14539 z m 0,30.31483 c 36.5345,0 65.83057,29.29607 65.83057,65.83056 l 0,63.22534 c 0,36.53456 -29.29607,65.83057 -65.83057,65.83057 -36.53449,0 -65.82107,-29.29598 -65.82107,-65.83057 l 0,-63.22534 c 0,-36.53449 29.28658,-65.83056 65.82107,-65.83056 z"
         style="font-size:medium;font-style:normal;font-variant:normal;font-weight:normal;font-stretch:normal;text-indent:0;text-align:start;text-decoration:none;line-height:normal;letter-spacing:normal;word-spacing:normal;text-transform:none;direction:ltr;block-progression:tb;writing-mode:lr-tb;text-anchor:start;baseline-shift:baseline;color:#000000;fill:#214478;fill-opacity:0.98823529;fill-rule:evenodd;stroke:none;stroke-width:100;marker:none;visibility:visible;display:inline;overflow:visible;enable-background:accumulate;font-family:Sans;-inkscape-font-specification:Sans" />
    </g>
    <g
       id="g4868"
       transform="translate(-275.54725,347.1813)">
      <path
         inkscape:connector-curvature="0"
         id="path4065"
         d="m 372.0625,516.28125 c -33.64199,0 -61,27.35801 -61,61 0,33.64199 27.35801,61 61,61 33.64199,0 61,-27.35801 61,-61 0,-33.64199 -27.35801,-61 -61,-61 z m 0,8 c 29.31847,0 53,23.68153 53,53 0,29.31847 -23.68153,53 -53,53 -29.31847,0 -53,-23.68153 -53,-53 0,-29.31847 23.68153,-53 53,-53 z m -4,21.84375 0,0.40625 c -15.2611,1.98636 -27.15625,14.96261 -27.15625,30.75 0,17.15234 14.00391,31.15625 31.15625,31.15625 17.15234,0 31.125,-14.00391 31.125,-31.15625 0,-17.15234 -13.97266,-31.15625 -31.125,-31.15625 l -4,0 z m 4,8 c 12.82882,0 23.125,10.32743 23.125,23.15625 0,12.82882 -10.29618,23.15625 -23.125,23.15625 -12.82882,0 -23.15625,-10.32743 -23.15625,-23.15625 0,-12.82882 10.32743,-23.15625 23.15625,-23.15625 z"
         style="font-size:medium;font-style:normal;font-variant:normal;font-weight:normal;font-stretch:normal;text-indent:0;text-align:start;text-decoration:none;line-height:normal;letter-spacing:normal;word-spacing:normal;text-transform:none;direction:ltr;block-progression:tb;writing-mode:lr-tb;text-anchor:start;baseline-shift:baseline;color:#000000;fill:#7f7f7f;fill-opacity:1;fill-rule:evenodd;stroke:none;stroke-width:8;marker:none;visibility:visible;display:inline;overflow:visible;enable-background:accumulate;font-family:Sans;-inkscape-font-specification:Sans" />
      <path
         inkscape:connector-curvature="0"
         id="path2985"
         d="m 372.04724,520.28293 c -31.48023,0 -57,25.51977 -57,57 0,31.48023 25.51977,57 57,57 31.48023,0 57,-25.51977 57,-57 0,-31.48023 -25.51977,-57 -57,-57 z m 0,29.85714 c 14.99058,0 27.14286,12.15228 27.14286,27.14286 0,14.99058 -12.15228,27.14286 -27.14286,27.14286 -14.99058,0 -27.14286,-12.15228 -27.14286,-27.14286 0,-14.99058 12.15228,-27.14285 27.14286,-27.14285 z"
         style="fill:#2c85ca;fill-opacity:1;fill-rule:evenodd;stroke:none" />
      <path
         id="path4835"
         d="m 372.0625,520.28125 0,29.84375 c 14.99058,0 27.125,12.16567 27.125,27.15625 l 29.875,0 c 0,-31.48023 -25.51977,-57 -57,-57 z"
         style="fill:#4f9dd9;fill-opacity:1;fill-rule:evenodd;stroke:none"
         inkscape:connector-curvature="0" />
    </g>
  </g>
  <script
     type="text/ecmascript"
     id="script14">
	 <--![d]
	var position = [&quot;translate(-275.54724,347.1811)&quot;,
	&quot;matrix(0.80901699,0.58778525,-0.58778525,0.80901699,134.82778,238.73915)&quot;,
	&quot;matrix(0.30901699,0.95105651,-0.95105651,0.30901699,530.56872,392.22016)&quot;,
	&quot;matrix(-0.30901699,0.95105651,-0.95105651,-0.30901699,760.51599,748.99959)&quot;,
	&quot;matrix(-0.80901699,0.58778525,-0.58778525,-0.80901699,736.83755,1172.7998)&quot;,
	&quot;matrix(-1,0,0,-1,468.57776,1501.7436)&quot;,
	&quot;matrix(-0.80901699,-0.58778525,0.58778525,-0.80901699,58.20274,1610.1855)&quot;,
	&quot;matrix(-0.30901699,-0.95105651,0.95105651,-0.30901699,-337.5382,1456.7045)&quot;,
	&quot;matrix(0.30901699,-0.95105651,0.95105651,0.30901699,-567.48547,1099.9251)&quot;,
	&quot;matrix(0.80901699,-0.58778525,0.58778525,0.80901699,-543.80703,676.12486)&quot;];
	var cont = 0;
	var siclo = function() {
		document.childNodes[1].childNodes[7].childNodes[3].attributes[1].value = position[cont];
		cont ++;
		if (cont &gt;= position.length) {
			cont = 0;
		}
	}
	siclo();
	setInterval(function(){siclo()},60);
  </script>
</svg>
